<svg width="24" height="25" viewBox="0 0 24 25" fill="none" xmlns="http://www.w3.org/2000/svg">
<path d="M17 2.01611H7C4.23858 2.01611 2 4.25469 2 7.01611V17.0161C2 19.7775 4.23858 22.0161 7 22.0161H17C19.7614 22.0161 22 19.7775 22 17.0161V7.01611C22 4.25469 19.7614 2.01611 17 2.01611Z" stroke="#02897A" stroke-width="2" stroke-linecap="round" stroke-linejoin="round"/>
<path d="M16 11.3861C16.1234 12.2184 15.9813 13.0683 15.5938 13.8151C15.2063 14.5619 14.5931 15.1675 13.8416 15.5458C13.0901 15.924 12.2384 16.0557 11.4078 15.922C10.5771 15.7884 9.80976 15.3962 9.21484 14.8013C8.61991 14.2063 8.22773 13.439 8.09406 12.6083C7.9604 11.7777 8.09206 10.926 8.47032 10.1745C8.84858 9.42296 9.45418 8.80985 10.201 8.42235C10.9478 8.03485 11.7978 7.8927 12.63 8.01611C13.4789 8.14199 14.2648 8.53757 14.8717 9.14442C15.4785 9.75126 15.8741 10.5372 16 11.3861Z" stroke="#02897A" stroke-width="2" stroke-linecap="round" stroke-linejoin="round"/>
<path d="M17.5 6.51611H17.51" stroke="#02897A" stroke-width="2" stroke-linecap="round" stroke-linejoin="round"/>
</svg>
